<?xml version="1.0" standalone="no"?>
<!DOCTYPE svg PUBLIC "-//W3C//DTD SVG 20010904//EN"
 "http://www.w3.org/TR/2001/REC-SVG-20010904/DTD/svg10.dtd">
<svg version="1.0" xmlns="http://www.w3.org/2000/svg"
 width="5000.000000pt" height="5000.000000pt" viewBox="0 0 5000.000000 5000.000000"
 preserveAspectRatio="xMidYMid meet">

<g transform="translate(0.000000,5000.000000) scale(0.100000,-0.100000)"
fill="white" stroke="none">
<path fill="#366D04" d="M12520 40229 c-793 -57 -1578 -477 -2091 -1121 -162 -203 -271 -377
-384 -610 -145 -302 -227 -577 -270 -902 -14 -107 -15 -1366 -15 -12554 0
-8322 3 -12474 10 -12555 20 -242 81 -513 165 -744 58 -157 216 -466 313 -613
127 -191 244 -333 411 -500 427 -425 963 -713 1515 -815 278 -50 232 -50 2956
-50 2805 0 2631 -3 2919 61 659 147 1259 527 1698 1074 381 474 600 1022 643
1605 17 227 9 24894 -8 25025 -40 307 -82 498 -158 706 -159 441 -369 770
-703 1105 -190 189 -277 261 -481 397 -435 290 -911 454 -1425 492 -160 12
-4930 11 -5095 -1z m5159 -4514 c92 -24 163 -65 232 -134 144 -144 193 -341
129 -525 -26 -77 -67 -139 -132 -202 -65 -63 -117 -96 -200 -126 l-63 -23
-2560 0 -2560 0 -71 22 c-368 116 -486 575 -218 848 62 63 125 102 214 132
l65 22 2555 1 c2183 0 2563 -2 2609 -15z m-2429 -16806 c467 -43 949 -243
1305 -541 191 -160 376 -370 498 -568 63 -103 158 -305 196 -418 34 -104 90
-320 118 -457 26 -131 26 -507 -1 -655 -57 -320 -183 -633 -363 -902 -372
-558 -927 -926 -1543 -1025 -124 -19 -471 -21 -670 -3 -751 68 -1421 555
-1781 1295 -223 461 -291 930 -198 1387 26 132 100 365 158 504 217 511 669
965 1190 1194 358 157 734 222 1091 189z"/>
<path fill="#DEF35A" d="M21960 35682 l0 -1513 7630 3 7630 3 0 -7637 0 -7638 -7630 0 -7630
0 0 -1517 0 -1518 7212 3 c3967 1 7467 4 7778 6 614 4 647 6 943 66 576 118
1123 402 1492 776 200 203 365 437 509 724 202 404 311 805 346 1270 14 189
14 15421 0 15620 -63 886 -429 1664 -1015 2157 -471 395 -1107 645 -1765 693
-99 7 -2583 11 -7823 13 l-7677 2 0 -1513z"/>
<path fill="#666E72" d="M23480 13555 l0 -785 -760 2 -760 3 0 -1507 0 -1508 6088 0 6087 0 0
1508 0 1507 -2292 -3 -2293 -3 0 786 0 785 -3035 0 -3035 0 0 -785z"/>
</g>
</svg>
